<svg width="57" height="57" viewBox="0 0 57 57" fill="none" xmlns="http://www.w3.org/2000/svg">
<path d="M33.2719 28.5429C33.2719 31.098 31.1356 33.1696 28.5001 33.1696C25.8649 33.1696 23.7283 31.098 23.7283 28.5429C23.7283 25.9876 25.8649 23.9161 28.5001 23.9161C31.1356 23.9161 33.2719 25.9876 33.2719 28.5429Z" fill="#53C1DE"/>
<path fill-rule="evenodd" clip-rule="evenodd" d="M43.9976 37.1325C45.0052 41.1027 46.2719 48.4652 41.8066 50.9613C37.3623 53.4465 31.5787 48.6844 28.5248 45.8259C25.4797 48.6559 19.5337 53.3977 15.0723 50.8936C10.6296 48.4001 11.9996 41.1597 13.0297 37.1645C8.88543 36.0233 1.78125 33.5652 1.78125 28.5429C1.78125 23.5349 8.87804 20.8606 12.9977 19.7204C11.9639 15.7031 10.6625 8.56621 15.1108 6.07816C19.5889 3.57462 25.5164 8.20355 28.5987 11.0933C31.6722 8.21798 37.4002 3.55876 41.8455 6.05376C46.3047 8.55659 45.1433 15.8204 44.1132 19.8387C48.1068 20.9813 55.2188 23.5975 55.2188 28.5429C55.2188 33.5169 48.0765 35.995 43.9976 37.1325ZM43.4914 21.9682C42.815 24.044 41.9021 26.2515 40.7855 28.5319C41.8514 30.7584 42.7288 32.9375 43.3863 35C46.3764 34.1594 52.9361 32.2383 52.9361 28.5429C52.9361 24.8128 46.6413 22.8736 43.4914 21.9682ZM40.7016 7.96932C37.3849 6.10791 32.4581 10.5635 30.1883 12.6809C31.6941 14.2778 33.1989 16.1342 34.6676 18.1956C37.2511 18.4178 39.6916 18.7811 41.905 19.2772C42.6299 16.4349 44.0329 9.8391 40.7016 7.96932ZM16.2514 7.99585C12.9344 9.85032 14.4505 16.219 15.2111 19.1782C17.3999 18.7087 19.8228 18.3709 22.4124 18.1673C23.8907 16.1502 25.4391 14.2961 26.9995 12.6723C25.0716 10.8642 19.584 6.13285 16.2514 7.99585ZM4.0639 28.5429C4.0639 32.2869 10.5843 34.1941 13.6427 35.0326C14.3115 32.9237 15.1886 30.7187 16.2472 28.489C15.1749 26.2261 14.2852 23.9861 13.6103 21.8524C10.6941 22.6618 4.0639 24.7966 4.0639 28.5429ZM16.216 48.9781C19.5465 50.8473 24.7143 46.295 26.9252 44.246C25.3728 42.6297 23.8386 40.7896 22.373 38.784C19.8599 38.5582 17.454 38.1955 15.2423 37.7096C14.4125 40.9319 12.889 47.1109 16.216 48.9781ZM36.3006 36.3783C38.0056 36.1697 39.6392 35.8922 41.1731 35.5527C40.7126 34.1216 40.1387 32.6252 39.4627 31.0912C38.4828 32.8938 37.431 34.6603 36.3006 36.3783ZM28.5255 42.6643C29.5784 41.5584 30.6329 40.3234 31.6703 38.9835C29.5661 39.0801 27.4585 39.0804 25.3543 38.985C26.3926 40.3124 27.4562 41.5456 28.5255 42.6643ZM17.5569 31.0928C16.8921 32.6215 16.3233 34.1245 15.8589 35.576C17.3835 35.9068 19.0095 36.1772 20.7035 36.3824C19.5699 34.6681 18.5198 32.9024 17.5569 31.0928ZM20.7521 20.5455C19.0022 20.7348 17.3516 20.9915 15.8274 21.3132C16.2992 22.7902 16.8805 24.3256 17.5595 25.8873C18.5357 24.0588 19.6018 22.276 20.7521 20.5455ZM28.5887 14.2651C27.5068 15.3971 26.4275 16.6492 25.3735 17.9958C27.4897 17.9153 29.6099 17.9151 31.7258 18.0067C30.6852 16.6355 29.6345 15.3816 28.5887 14.2651ZM39.4844 25.9667C40.1987 24.3882 40.8008 22.8611 41.279 21.409C39.7295 21.0661 38.0568 20.79 36.2942 20.585C37.433 22.3356 38.5015 24.1295 39.4844 25.9667ZM33.3936 20.3168C30.1567 20.0925 26.8997 20.095 23.6618 20.2984C21.8219 22.9042 20.1841 25.6447 18.7703 28.4897C20.1773 31.3288 21.8032 34.0639 23.6343 36.6656C26.8746 36.903 30.1348 36.9038 33.3751 36.6642C35.1906 34.0627 36.814 31.3347 38.2536 28.5212C36.8311 25.6835 35.1966 22.9429 33.3936 20.3168ZM40.6665 49.0439C43.9979 47.1808 42.5151 40.5639 41.7872 37.6866C39.5703 38.1827 37.1628 38.5518 34.6423 38.7812C33.1738 40.8084 31.6525 42.6517 30.1252 44.2472C32.3644 46.3403 37.3672 50.8887 40.6665 49.0439Z" fill="#53C1DE"/>
</svg>
