<svg width="969" height="473" viewBox="0 0 969 473" fill="none" xmlns="http://www.w3.org/2000/svg">
<path d="M295.331 461.146C294.941 467.082 299.257 472.13 304.72 472.13H359.806C365.269 472.13 369.585 467.082 369.196 461.146L360.503 328.58H304.024L295.331 461.146Z" fill="url(#paint0_linear_37_139)"/>
<path d="M482.874 103H181.653C160.858 103 144 121.363 144 144.014V349.087C144 371.738 160.858 390.101 181.653 390.101H482.874C503.669 390.101 520.526 371.738 520.526 349.087V144.014C520.526 121.363 503.669 103 482.874 103Z" fill="url(#paint1_radial_37_139)"/>
<path d="M144 369.594C144 392.246 160.858 410.609 181.653 410.609H482.874C503.67 410.609 520.526 392.246 520.526 369.594V328.58H144V369.594Z" fill="#D8D8D8"/>
<path d="M351.089 369.594C351.089 358.268 342.661 349.087 332.263 349.087C321.865 349.087 313.437 358.268 313.437 369.594C313.437 380.921 321.865 390.101 332.263 390.101C342.661 390.101 351.089 380.921 351.089 369.594Z" fill="#2B2B2B"/>
<path d="M282.676 133.53H190.225C183.081 133.53 177.618 138.993 177.618 146.137V209.171C177.618 216.315 183.081 221.778 190.225 221.778H282.676C289.82 221.778 295.283 216.315 295.283 209.171V146.137C295.283 138.993 289.82 133.53 282.676 133.53ZM214.178 174.292L201.572 186.899C200.731 187.739 199.891 188.16 198.63 188.16C197.369 188.16 196.529 187.739 195.688 186.899C194.007 185.218 194.007 182.697 195.688 181.016L205.354 171.351L195.688 161.685C194.007 160.004 194.007 157.483 195.688 155.802C197.369 154.121 199.891 154.121 201.572 155.802L214.178 168.409C215.859 170.09 215.859 172.611 214.178 174.292ZM240.653 188.16H223.844C221.322 188.16 219.641 186.479 219.641 183.957C219.641 181.436 221.322 179.755 223.844 179.755H240.653C243.174 179.755 244.855 181.436 244.855 183.957C244.855 186.479 243.174 188.16 240.653 188.16Z" fill="#606060"/>
<path d="M652.464 270.691H431.343C423.884 270.691 417.838 276.849 417.838 284.444V439.203H665.968V284.445C665.969 276.849 659.921 270.691 652.464 270.691Z" fill="#698F92"/>
<path d="M624.818 290.285H647.444V439.203H436.362V290.285H610.074" fill="#606060"/>
<path d="M462.02 290.284H436.362V309.097H462.02V290.284Z" fill="#F2304D"/>
<path d="M647.44 290.284H458.767V309.097H647.44V290.284Z" fill="#F5F5F5"/>
<g opacity="0.2">
<path d="M445.774 270.691H431.343C423.884 270.691 417.838 276.849 417.838 284.444V439.203H432.268V284.445C432.269 276.849 438.315 270.691 445.774 270.691Z" fill="#231F20"/>
</g>
<path d="M472.259 467.479H501.463H582.343H668.622C676.673 467.479 683.199 460.832 683.199 452.633V439.205H680.174H570.143H541.904H403.633H400.607V452.633C400.607 460.832 407.135 467.479 415.184 467.479H457.924" fill="#DBDDDD"/>
<path d="M501.315 439.203V445.833C501.315 449.979 504.616 453.341 508.687 453.341H575.121C579.192 453.341 582.493 449.979 582.493 445.833V439.203H501.315Z" fill="#EAE9E8"/>
<path d="M683.2 434.511H670.576V284.445C670.576 274.274 662.451 266 652.464 266H431.343C421.356 266 413.23 274.275 413.23 284.445V434.511H400.607C398.062 434.511 396 436.612 396 439.203V452.632C396 463.405 404.606 472.171 415.185 472.171H457.925C460.471 472.171 462.533 470.069 462.533 467.478C462.533 464.887 460.471 462.786 457.925 462.786H415.185C409.688 462.786 405.215 458.231 405.215 452.632V443.896H417.839H436.363H496.708V445.834C496.708 452.561 502.082 458.034 508.688 458.034H575.122C581.727 458.034 587.101 452.561 587.101 445.834V443.896H647.445H665.97H678.594V452.632C678.594 458.231 674.121 462.786 668.624 462.786H472.259C469.714 462.786 467.651 464.887 467.651 467.478C467.651 470.069 469.714 472.171 472.259 472.171H668.623C679.201 472.171 687.808 463.406 687.808 452.632V439.203C687.807 436.612 685.745 434.511 683.2 434.511ZM457.413 304.405H440.97V294.977H457.413C457.413 294.977 457.413 304.405 457.413 304.405ZM577.885 445.834C577.885 447.386 576.645 448.649 575.12 448.649H508.687C507.163 448.649 505.922 447.386 505.922 445.834V443.896H577.885V445.834ZM582.492 434.511H501.315H440.97V313.79H462.02H642.837V434.511H582.492ZM652.051 434.511V290.285C652.051 287.693 649.989 285.593 647.444 285.593H624.818C622.273 285.593 620.211 287.694 620.211 290.285C620.211 292.876 622.273 294.977 624.818 294.977H642.837V304.405H466.628V294.977H610.074C612.619 294.977 614.681 292.876 614.681 290.285C614.681 287.694 612.619 285.593 610.074 285.593H462.02H436.362C433.817 285.593 431.755 287.694 431.755 290.285V309.097V434.511H422.446V284.445C422.446 279.449 426.437 275.385 431.343 275.385H652.464C657.369 275.385 661.361 279.449 661.361 284.445V434.511H652.051Z" fill="#231F20"/>
<path d="M486.097 328.804H461.892V318.657H486.097V328.804ZM469.961 338.951V349.097H494.166V338.951H469.961ZM469.961 409.977H494.166V399.831H469.961V409.977ZM461.892 430.271H486.097V420.124H461.892V430.271Z" fill="#C3CC6A"/>
<path d="M590.987 359.111V369.225H478.029V359.111H590.987ZM478.029 389.452H590.987V379.338H478.029V389.452Z" fill="#E0A838"/>
<path d="M550.645 348.998H502.234V338.884H550.645V348.998ZM582.918 318.657H494.166V328.771H582.918V318.657Z" fill="#EAD13F"/>
<g opacity="0.2">
<path d="M450.799 290.284H436.362V439.202H450.799V290.284Z" fill="#231F20"/>
</g>
<g clip-path="url(#clip0_37_139)">
<path d="M881.713 364.23C882.152 364.671 882.73 364.895 883.306 364.895C883.876 364.895 884.445 364.68 884.882 364.248C885.763 363.378 885.772 361.959 884.902 361.079C882.807 358.959 882.802 355.124 884.891 353.033C888.697 349.227 888.701 342.515 884.902 338.667C884.03 337.788 882.612 337.774 881.733 338.649C880.852 339.518 880.843 340.935 881.713 341.818C883.808 343.936 883.813 347.772 881.722 349.864C877.918 353.669 877.914 360.381 881.713 364.23Z" fill="#D8D8D8"/>
<path d="M864.577 364.748C864.842 364.849 865.111 364.894 865.377 364.894C866.278 364.894 867.13 364.345 867.471 363.453C867.912 362.297 867.332 361.001 866.177 360.56C865.678 360.369 865.418 359.988 865.411 359.428C865.402 358.91 865.66 358.242 866.24 357.998C868.423 357.086 869.864 354.822 869.826 352.363C869.788 349.97 868.392 347.959 866.177 347.112C865.016 346.666 863.726 347.249 863.284 348.407C862.842 349.564 863.421 350.859 864.577 351.301C865.077 351.491 865.335 351.872 865.344 352.433C865.353 352.951 865.095 353.618 864.514 353.863C862.331 354.775 860.89 357.039 860.928 359.497C860.967 361.891 862.363 363.901 864.577 364.748Z" fill="#D8D8D8"/>
<path d="M902.678 364.748C902.942 364.849 903.212 364.894 903.478 364.894C904.379 364.894 905.231 364.345 905.571 363.453C906.013 362.297 905.432 361.001 904.278 360.56C903.778 360.369 903.518 359.988 903.511 359.428C903.502 358.91 903.76 358.242 904.341 357.998C906.524 357.086 907.965 354.822 907.927 352.363C907.889 349.97 906.492 347.959 904.278 347.112C903.117 346.666 901.827 347.249 901.385 348.407C900.943 349.564 901.522 350.859 902.678 351.301C903.178 351.491 903.436 351.872 903.445 352.433C903.454 352.951 903.196 353.618 902.615 353.863C900.432 354.775 898.991 357.039 899.029 359.497C899.068 361.891 900.464 363.901 902.678 364.748Z" fill="#D8D8D8"/>
<path d="M905.719 420.926H919.167V399.441L912.443 392.718L905.719 399.441V420.926Z" fill="#606060"/>
<path d="M934.922 380.604C934.824 379.799 934.721 378.874 934.622 377.966C934.326 375.267 934.017 372.477 933.647 371.052C933.39 370.068 932.497 369.377 931.478 369.377H914.684V388.621L922.993 396.929C923.414 397.348 923.649 397.917 923.649 398.513V423.167C923.649 424.406 922.645 425.408 921.408 425.408H903.478C902.241 425.408 901.237 424.406 901.237 423.167V398.513C901.237 397.917 901.472 397.348 901.894 396.929L910.202 388.621V369.377H839.619C838.599 369.377 837.707 370.068 837.449 371.054C835.186 379.747 834 393.704 834 402.996C834 432.524 845.672 459.64 863.741 472.077C864.115 472.335 864.557 472.474 865.012 472.474H906.084C906.539 472.474 906.981 472.335 907.355 472.077C914.852 466.918 921.45 459.053 926.509 449.268C928.938 449.795 931.361 450.061 933.734 450.061C952.89 450.061 968.473 434.478 968.473 415.322C968.474 396.566 953.529 381.231 934.922 380.604ZM933.735 436.614C932.511 436.614 931.256 436.495 929.904 436.251C929.272 436.135 928.721 435.756 928.387 435.209C928.053 434.66 927.972 433.996 928.161 433.385C931.117 423.824 932.614 413.599 932.614 402.996C932.614 400.907 932.547 398.769 932.408 396.454C932.37 395.817 932.603 395.196 933.049 394.744C933.495 394.289 934.118 394.026 934.75 394.078C946.12 394.62 955.026 403.951 955.026 415.322C955.026 427.062 945.474 436.614 933.735 436.614Z" fill="#D8D8D8"/>
</g>
<path d="M732.345 471.895C745.954 436.979 770.451 435.581 788.823 470.508" stroke="#656565" stroke-width="3"/>
<path d="M731 471.222H790.577" stroke="#5F5F5F" stroke-width="3"/>
<line x1="759.395" y1="446.345" x2="759.395" y2="451.724" stroke="#5F5F5F" stroke-width="3"/>
<g clip-path="url(#clip1_37_139)">
<path d="M918.517 20.3265L901.236 3.04518L883.955 20.3265L882.171 18.5426L900.344 0.369508C900.58 0.133003 900.901 0.000244141 901.236 0.000244141C901.571 0.000244141 901.891 0.133003 902.128 0.369508L920.301 18.5426L918.517 20.3265Z" fill="#B3B3B3"/>
<path d="M851.949 16.0442V134.474H950.525V16.0442H851.949Z" fill="#F7B239"/>
<path d="M933.822 35.7876H871.174V95.7024H933.822V35.7876Z" fill="white"/>
<path d="M865.881 29.9758V120.542H936.593V29.9758H865.881Z" fill="white"/>
<path d="M950.525 16.0442V17.6051L936.593 31.5369V29.976H935.032L948.964 16.0442H950.525Z" fill="#D69732"/>
<path d="M867.442 29.976H865.881V31.5369L851.949 17.6051V16.0442H853.51L867.442 29.976Z" fill="#D69732"/>
<path d="M867.442 120.542L853.51 134.474H851.949V132.913L865.881 118.981V120.542H867.442Z" fill="#D69732"/>
<path d="M950.525 132.913V134.474H948.964L935.032 120.542H936.593V118.981L950.525 132.913Z" fill="#D69732"/>
<path d="M898.166 56.9932C898.11 57.1536 897.852 57.1291 897.705 57.1758C897.573 57.2449 897.466 57.3652 897.315 57.3652C897.177 57.3652 896.954 57.3095 896.936 57.1758C896.91 56.9932 897.181 56.8061 897.353 56.8061C897.464 56.7527 897.593 56.7237 897.729 56.7237C897.854 56.7237 897.972 56.7482 898.079 56.795L898.072 56.7928C898.121 56.8128 898.157 56.8596 898.157 56.9153C898.157 56.9219 898.157 56.9264 898.155 56.9331V56.9888H898.164L898.166 56.9932ZM899.698 56.9932V56.9331C899.68 56.8774 899.734 56.8173 899.778 56.795C899.881 56.7504 900.001 56.7237 900.128 56.7237C900.264 56.7237 900.393 56.7549 900.507 56.8084L900.502 56.8061C900.678 56.8061 900.948 56.9932 900.919 57.1825C900.903 57.3184 900.683 57.3652 900.542 57.3652C900.389 57.3652 900.286 57.2449 900.15 57.1758C900.005 57.1246 899.745 57.1536 899.696 56.9954L899.698 56.9932ZM902.709 61.3987C901.524 62.1492 900.124 62.6771 898.622 62.882L898.569 62.8887C897.219 62.8107 895.992 62.3363 894.99 61.5791L895.005 61.5902C894.578 61.2182 894.226 60.8441 893.967 60.657C893.511 60.285 893.567 59.7305 893.763 59.7305C894.065 59.775 894.121 60.1024 894.317 60.2873C894.584 60.4699 894.916 60.8441 895.319 61.2138C896.204 61.9443 897.322 62.4187 898.549 62.5123L898.569 62.5145C900.026 62.3875 901.351 61.9198 902.495 61.196L902.46 61.2182C903.003 60.8418 903.698 60.2895 904.264 59.9175C904.698 59.5389 904.678 59.1737 905.041 59.1737C905.398 59.2182 905.137 59.5456 904.631 60.098C904.083 60.5167 903.458 60.9465 902.81 61.3452L902.712 61.4009L902.709 61.3987ZM882.785 86.6531H882.811C882.965 86.6531 883.116 86.6687 883.263 86.6954L883.248 86.6932C884.459 87.005 885.457 87.7578 886.083 88.7667L886.094 88.7868L888.627 93.4172L888.635 93.4261C889.653 95.1477 890.747 96.6377 891.97 98.0119L891.945 97.983C893.036 99.1411 893.771 100.647 893.97 102.317L893.974 102.353V102.371C893.947 104.19 892.609 105.691 890.865 105.97L890.845 105.972C890.399 106.041 889.883 106.079 889.359 106.079C887.451 106.079 885.664 105.56 884.132 104.653L884.179 104.68C881.834 103.698 879.112 103.09 876.261 103.005H876.228C875.399 102.95 874.678 102.527 874.221 101.901L874.216 101.894C874.096 101.506 874.027 101.061 874.027 100.598C874.027 99.8182 874.223 99.0854 874.571 98.4462L874.559 98.4707V98.4596L874.566 98.4507C874.657 98.032 874.711 97.5487 874.711 97.0542C874.711 96.444 874.631 95.8537 874.479 95.2925L874.49 95.3393C874.399 95.0052 874.346 94.6199 874.346 94.2212C874.346 93.6822 874.441 93.1677 874.62 92.6911L874.611 92.7223C875.056 91.7935 875.713 91.6087 876.531 91.2389C877.506 90.9427 878.355 90.4951 879.094 89.9182L879.076 89.9316H879.081V89.9249C879.793 89.1788 880.319 88.2522 880.94 87.593C881.375 87.0384 882.036 86.6798 882.782 86.6576H882.787L882.785 86.6531ZM912.883 86.5172C912.881 86.5551 912.881 86.6019 912.881 86.6486C912.881 88.3035 913.881 89.7244 915.311 90.3414L915.338 90.3525C915.445 90.3592 915.569 90.3637 915.694 90.3637C917.545 90.3637 919.202 89.5374 920.315 88.2322L920.322 88.2233L920.91 88.1966C921.028 88.1787 921.164 88.1698 921.302 88.1698C922.062 88.1698 922.754 88.4638 923.269 88.9449L923.267 88.9427L923.275 88.9516C923.83 89.622 924.215 90.4505 924.36 91.3614L924.365 91.3904C924.487 92.5151 924.895 93.5285 925.516 94.3749L925.505 94.3571C926.431 95.15 927.075 96.2502 927.271 97.4997L927.276 97.5286L927.284 97.5086V97.5576L927.276 97.5242C927.233 98.2525 926.761 98.6266 925.89 99.1812C923.253 100.288 920.988 101.76 919.037 103.564L919.053 103.551C917.698 105.315 915.71 106.533 913.433 106.861L913.387 106.865C913.222 106.887 913.03 106.901 912.836 106.901C911.126 106.901 909.656 105.867 909.015 104.393L909.003 104.366L908.99 104.357C908.783 103.72 908.665 102.988 908.665 102.228C908.665 101.302 908.841 100.417 909.164 99.6044L909.146 99.6534C909.667 98.1656 910.115 96.3883 910.411 94.5575L910.436 94.3727C910.471 92.5641 910.667 90.8247 911.01 89.1387L910.979 89.3235C911.168 88.1698 911.828 87.1988 912.747 86.5952L912.763 86.5863L912.888 86.5262L912.883 86.5172ZM906.801 61.5857C908.137 66.3676 909.783 70.4991 911.805 74.4078L911.629 74.0359C912.995 76.4636 914.057 79.281 914.665 82.2655L914.696 82.4526C914.716 82.4526 914.741 82.4526 914.765 82.4526C915.249 82.4526 915.716 82.5172 916.162 82.6397L916.124 82.6307C916.369 81.751 916.509 80.7421 916.509 79.6997C916.509 76.5237 915.202 73.6506 913.095 71.5949L913.093 71.5926C912.48 71.0358 912.447 70.6594 912.75 70.6594C914.912 72.6862 916.511 75.2876 917.304 78.2186L917.331 78.3322C917.529 79.065 917.643 79.9069 917.643 80.7755C917.643 81.5572 917.551 82.3189 917.378 83.0472L917.391 82.9804C917.556 83.065 917.747 83.1296 917.95 83.1653L917.964 83.1675C920.837 84.6531 921.897 85.7778 921.387 87.446V87.3257C921.22 87.3168 921.053 87.3257 920.886 87.3257H920.841C921.262 86.025 920.336 85.0295 917.877 83.9181C915.331 82.8045 913.295 82.9826 912.95 85.2121C912.926 85.3212 912.908 85.4482 912.901 85.5796V85.5863C912.738 85.6531 912.545 85.7154 912.344 85.76L912.32 85.7644C911.188 86.5128 910.382 87.6776 910.117 89.0362L910.113 89.0674C909.783 90.6153 909.576 92.4082 909.542 94.2412V94.268V94.2769C909.34 95.6956 909.03 96.9651 908.611 98.1812L908.656 98.0342C906.467 99.8249 903.643 100.907 900.562 100.907C898.046 100.907 895.698 100.183 893.718 98.9318L893.771 98.9629C893.446 98.3995 893.074 97.9117 892.651 97.4774L892.653 97.4796C892.437 97.1233 892.183 96.8181 891.892 96.5553L891.887 96.5531C892.348 96.5531 892.794 96.4841 893.215 96.3571L893.181 96.366C893.582 96.1767 893.89 95.8493 894.052 95.4484L894.057 95.4373C894.097 95.2301 894.121 94.994 894.121 94.7513C894.121 93.7602 893.731 92.8626 893.094 92.1989L893.097 92.2011C891.718 90.5062 890.07 89.0941 888.206 88.0139L888.121 87.9694C886.627 87.1052 885.495 85.7533 884.936 84.1341L884.92 84.0851C884.713 83.3769 884.593 82.5617 884.593 81.7198C884.593 80.9336 884.698 80.1719 884.892 79.4458L884.878 79.506C885.718 76.5794 886.929 74.0248 888.486 71.7196L888.424 71.8154C888.722 71.635 888.526 72.1918 887.288 74.5259C886.232 76.1139 885.602 78.0672 885.602 80.1674C885.602 82.0383 886.101 83.7911 886.974 85.3034L886.947 85.2544C887.063 82.339 887.716 79.604 888.805 77.105L888.749 77.2498C891.099 73.0136 892.878 68.0937 893.816 62.8798L893.861 62.588C893.994 62.6882 894.464 62.9644 894.665 63.1492C895.27 63.519 895.723 64.0758 896.306 64.4433C896.901 65.0223 897.716 65.3787 898.611 65.3787C898.658 65.3787 898.705 65.3787 898.752 65.3765H898.745C898.854 65.3854 898.954 65.3943 899.05 65.3943C900.072 65.3742 901.026 65.1003 901.854 64.6326L901.825 64.6482C902.631 64.2762 903.273 63.7194 903.885 63.5346H903.899C905.09 63.2116 906.088 62.5234 906.794 61.5991L906.803 61.5857H906.801ZM899.008 55.6235C899.014 55.6235 899.021 55.6235 899.028 55.6235C900.295 55.6235 901.464 56.04 902.406 56.7438L902.391 56.7326C903.233 57.2538 904.204 57.697 905.231 58.011L905.32 58.0333H905.329C905.876 58.2783 906.329 58.6592 906.651 59.1336L906.658 59.1447V58.7794C906.761 58.9843 906.823 59.2271 906.823 59.4832C906.823 59.7015 906.778 59.9086 906.7 60.098L906.705 60.0868C906.063 61.216 905.023 62.0557 903.781 62.4209L903.745 62.4299V62.4343C902.999 62.8107 902.351 63.3608 901.589 63.7283C900.809 64.196 899.872 64.4722 898.867 64.4722C898.834 64.4722 898.801 64.4722 898.767 64.4722H898.772C898.723 64.4744 898.665 64.4767 898.607 64.4767C898.219 64.4767 897.845 64.4076 897.502 64.2784L897.524 64.2851C897.17 64.0914 896.878 63.9087 896.596 63.7127L896.627 63.735C896.121 63.2918 895.564 62.8664 894.981 62.4766L894.923 62.441V62.4276H894.91C894.074 61.9844 893.417 61.3051 893.012 60.4766L893.001 60.4499C892.941 60.3006 892.907 60.1269 892.907 59.9465C892.907 59.461 893.157 59.0333 893.533 58.7839L893.538 58.7817C894.161 58.4053 894.596 58.0266 894.883 57.8462C895.172 57.6413 895.282 57.5634 895.373 57.481H895.377V57.4721C895.974 56.717 896.765 56.138 897.676 55.8106L897.711 55.7994C898.099 55.6881 898.544 55.6235 899.005 55.619L899.008 55.6235ZM895.195 50.875H895.295C895.714 50.8839 896.099 51.0243 896.411 51.2537L896.406 51.2492C896.805 51.6033 897.13 52.0332 897.353 52.5187L897.362 52.5432C897.613 53.0889 897.769 53.7236 897.787 54.3918V54.3985V54.4096C897.796 54.5121 897.801 54.6301 897.801 54.7482C897.801 54.8885 897.794 55.0288 897.78 55.1669L897.783 55.1491V55.3718C897.7 55.3918 897.627 55.4208 897.551 55.4386C897.126 55.6146 896.767 55.8016 896.426 56.0132L896.457 55.9954C896.475 55.8729 896.484 55.7326 896.484 55.5901C896.484 55.472 896.478 55.354 896.464 55.2382L896.466 55.2515V55.2092C896.426 54.8662 896.346 54.5522 896.228 54.256L896.237 54.2805C896.146 53.9865 895.985 53.737 895.776 53.5388C895.653 53.4274 895.491 53.3584 895.31 53.3584C895.295 53.3584 895.279 53.3584 895.264 53.3606H895.266H895.208C894.979 53.3851 894.787 53.5277 894.691 53.7236L894.689 53.7281C894.518 53.9352 894.4 54.1914 894.355 54.472V54.4809C894.304 54.6724 894.277 54.8929 894.277 55.1201C894.277 55.2181 894.282 55.3161 894.293 55.4119V55.4007V55.4431C894.328 55.7861 894.408 56.1023 894.524 56.3963L894.515 56.3718C894.609 56.6658 894.767 56.9175 894.976 57.1179C895.003 57.1447 895.034 57.1669 895.07 57.1848H895.072C894.887 57.3028 894.727 57.4275 894.58 57.5656L894.582 57.5634C894.482 57.6525 894.359 57.7193 894.224 57.7505L894.217 57.7527C893.943 57.4253 893.689 57.0578 893.471 56.6703L893.453 56.6346C893.201 56.089 893.045 55.4564 893.021 54.786V54.7771C893.012 54.6702 893.008 54.5455 893.008 54.4185C893.008 53.8818 893.094 53.3651 893.253 52.8818L893.244 52.9174C893.408 52.3428 893.678 51.8461 894.037 51.4229L894.032 51.4296C894.315 51.0955 894.729 50.8839 895.195 50.8728H895.197L895.195 50.875ZM903.44 50.7102H903.475C903.478 50.7102 903.48 50.7102 903.484 50.7102C904.097 50.7102 904.658 50.9174 905.108 51.2648L905.101 51.2603C905.611 51.6546 906.021 52.1512 906.308 52.7192L906.32 52.7437C906.589 53.3361 906.756 54.0243 906.781 54.7504V54.7593C906.781 54.7036 906.796 54.6479 906.796 54.5923V54.884L906.785 54.8261L906.774 54.7593C906.767 55.472 906.616 56.1446 906.344 56.7571L906.357 56.7259C906.219 57.089 906.019 57.4008 905.765 57.6591C905.698 57.6191 905.616 57.5812 905.533 57.5478L905.52 57.5433C905.219 57.4498 904.957 57.3228 904.718 57.1669L904.729 57.1736C904.558 57.1023 904.353 57.04 904.141 56.9932L904.117 56.9888C904.297 56.8195 904.464 56.6391 904.618 56.4475L904.627 56.4364C904.767 56.1068 904.854 55.7259 904.872 55.325V55.3183V55.2627C904.872 55.2448 904.872 55.227 904.872 55.207C904.872 54.8284 904.81 54.4653 904.694 54.1268L904.7 54.1513C904.56 53.7971 904.389 53.492 904.184 53.2136L904.193 53.2248C903.999 53.0288 903.743 52.8951 903.455 52.8573H903.449H903.404C903.402 52.8573 903.398 52.8573 903.395 52.8573C903.101 52.8573 902.838 53.002 902.678 53.2225L902.676 53.2248C902.418 53.4764 902.222 53.7882 902.11 54.1379L902.106 54.1535C901.965 54.4809 901.874 54.8618 901.856 55.2582V55.2649V55.3183C901.861 55.5856 901.881 55.844 901.916 56.0956L901.912 56.0622C901.375 55.8751 900.694 55.6858 900.221 55.501C900.195 55.3384 900.177 55.1468 900.173 54.9508V54.9442V54.8885C900.17 54.8439 900.17 54.7927 900.17 54.7415C900.17 54.0199 900.324 53.3361 900.602 52.7192L900.589 52.7504C900.825 52.129 901.242 51.6189 901.774 51.2737L901.785 51.267C902.239 50.9196 902.816 50.7102 903.44 50.7102ZM901.968 41.2334C901.536 41.2334 901.09 41.2557 900.631 41.2913C888.869 42.2178 891.99 54.6702 891.809 58.8195C891.698 61.9955 890.62 64.8976 888.858 67.2652L888.887 67.2251C885.753 70.7931 883.197 74.9624 881.424 79.526L881.328 79.8089C880.753 81.3345 880.419 83.0962 880.419 84.9359C880.419 85.5707 880.459 86.1965 880.535 86.809L880.528 86.7355C880.404 86.838 880.299 86.9627 880.226 87.1052L880.223 87.1119C879.499 87.858 878.972 88.7823 878.377 89.446C877.747 89.9293 877.007 90.3102 876.205 90.5463L876.159 90.5574C875.125 90.867 874.283 91.5418 873.764 92.4305L873.753 92.4506C873.522 92.9227 873.386 93.4773 873.386 94.0653C873.386 94.0876 873.386 94.1076 873.386 94.1299C873.39 94.66 873.444 95.1722 873.548 95.6711L873.539 95.6199C873.664 96.1077 873.735 96.6689 873.735 97.2458C873.735 97.6244 873.704 97.9963 873.644 98.3594L873.649 98.3193C873.277 99.0164 873.061 99.8449 873.061 100.725C873.061 101.344 873.167 101.936 873.366 102.486L873.355 102.451C873.963 103.315 874.882 103.925 875.947 104.119L875.972 104.123C878.809 104.362 881.43 104.954 883.903 105.861L883.693 105.794C885.248 106.718 887.121 107.264 889.119 107.264C889.774 107.264 890.415 107.206 891.039 107.092L890.974 107.101C892.46 106.765 893.671 105.796 894.324 104.498L894.337 104.469C895.972 104.46 897.76 103.72 900.627 103.54C902.571 103.38 905.008 104.284 907.798 104.097C907.881 104.451 907.99 104.76 908.128 105.052L908.115 105.023L908.124 105.032C908.979 106.823 910.774 108.039 912.854 108.039C913.035 108.039 913.213 108.03 913.389 108.012L913.367 108.014C915.93 107.636 918.131 106.304 919.632 104.4L919.647 104.38C921.525 102.669 923.716 101.259 926.117 100.253L926.267 100.197C927.229 99.7714 927.919 98.8939 928.071 97.8382L928.073 97.8226C927.941 96.2769 927.2 94.9295 926.095 94.0007L926.086 93.994V93.7245L926.077 93.7156C925.601 92.9806 925.267 92.1076 925.14 91.1721L925.135 91.1387C925.017 89.9962 924.516 88.9872 923.765 88.2277H923.757C923.592 88.0785 923.414 88.0407 923.233 87.8513C923.086 87.7467 922.904 87.6821 922.705 87.6732C923.14 86.3324 923.389 84.7911 923.389 83.1898C923.389 81.0962 922.959 79.1028 922.184 77.2943L922.222 77.3923C920.654 73.6684 918.616 70.4634 916.137 67.6616L916.168 67.6995C913.707 65.2896 912.097 62.0178 911.83 58.3741L911.828 58.3273C911.901 52.3383 912.485 41.2579 901.963 41.2423L901.968 41.2334Z" fill="black"/>
</g>
<g clip-path="url(#clip2_37_139)">
<path d="M26.9303 405.11C26.9303 412.573 23.0648 419.134 17.2269 422.898C17.2269 422.898 96.8375 422.898 104.227 422.898C111.617 422.898 121.593 417.873 121.593 405.11C121.593 392.348 111.617 387.323 104.227 387.323C96.8375 387.323 17.2269 387.323 17.2269 387.323C23.0648 391.087 26.9303 397.647 26.9303 405.11Z" fill="#EDEEF0"/>
<path d="M8.73288 382.698H103.328C115.686 382.698 125.741 392.752 125.741 405.111C125.741 417.469 115.686 427.523 103.328 427.523H8.73288V418.807H103.328C110.88 418.807 117.024 412.663 117.024 405.111C117.024 397.559 110.88 391.414 103.328 391.414H8.73288V382.698Z" fill="#E5C400"/>
<path opacity="0.3" d="M26.9303 405.11C26.9303 410.336 25.0299 415.116 21.8891 418.806H8.73288V427.523H103.328C115.686 427.523 125.741 417.469 125.741 405.11H26.9303Z" fill="#5B5B5F"/>
<path d="M107.543 449.935C107.543 457.398 111.409 463.958 117.246 467.723C117.246 467.723 37.6359 467.723 30.2463 467.723C22.8567 467.723 12.8808 462.698 12.8808 449.935C12.8808 437.172 22.8567 432.147 30.2463 432.147C37.6359 432.147 117.246 432.147 117.246 432.147C111.409 435.912 107.543 442.472 107.543 449.935Z" fill="#EDEEF0"/>
<path d="M125.741 427.523H31.1455C18.7871 427.523 8.73288 437.577 8.73288 449.935C8.73288 462.294 18.7871 472.347 31.1455 472.347H125.741V463.631H31.1455C23.5931 463.631 17.4491 457.487 17.4491 449.935C17.4491 442.383 23.5934 436.239 31.1455 436.239H125.741L125.741 427.523Z" fill="#C8523B"/>
<path opacity="0.3" d="M107.543 449.935C107.543 455.161 109.444 459.94 112.584 463.631H125.741V472.347H31.1455C18.7871 472.347 8.73288 462.294 8.73288 449.935H107.543Z" fill="#5B5B5F"/>
<path d="M107.543 360.286C107.543 367.749 111.409 374.31 117.246 378.074C117.246 378.074 37.6359 378.074 30.2463 378.074C22.8567 378.074 12.8808 373.049 12.8808 360.286C12.8808 347.524 22.8567 342.498 30.2463 342.498C37.6359 342.498 117.246 342.498 117.246 342.498C111.409 346.263 107.543 352.823 107.543 360.286Z" fill="#EDEEF0"/>
<path d="M125.741 337.874H31.1455C18.7871 337.874 8.73288 347.928 8.73288 360.286C8.73288 372.645 18.7871 382.698 31.1455 382.698H125.741V373.982H31.1455C23.5931 373.982 17.4491 367.838 17.4491 360.286C17.4491 352.734 23.5934 346.59 31.1455 346.59H125.741L125.741 337.874Z" fill="#ABCB57"/>
<path opacity="0.3" d="M107.543 360.286C107.543 365.512 109.444 370.292 112.584 373.982H125.741V382.698H31.1455C18.7871 382.698 8.73288 372.645 8.73288 360.286H107.543Z" fill="#5B5B5F"/>
</g>
<defs>
<linearGradient id="paint0_linear_37_139" x1="332.263" y1="310.26" x2="332.263" y2="472.13" gradientUnits="userSpaceOnUse">
<stop stop-color="#B8B8B8"/>
<stop offset="1" stop-color="#C7C7C7"/>
</linearGradient>
<radialGradient id="paint1_radial_37_139" cx="0" cy="0" r="1" gradientUnits="userSpaceOnUse" gradientTransform="translate(156.874 472.13) rotate(134.572) scale(518.17 778.837)">
<stop/>
<stop offset="1" stop-color="#757575"/>
</radialGradient>
<clipPath id="clip0_37_139">
<rect width="134.474" height="134.474" fill="white" transform="translate(834 338)"/>
</clipPath>
<clipPath id="clip1_37_139">
<rect width="134.474" height="134.474" fill="white" transform="translate(834)"/>
</clipPath>
<clipPath id="clip2_37_139">
<rect width="134.474" height="134.474" fill="white" transform="translate(0 337.874)"/>
</clipPath>
</defs>
</svg>
