<svg width="197" height="197" viewBox="0 0 197 197" fill="none" xmlns="http://www.w3.org/2000/svg">
<g clip-path="url(#clip0_53_235)">
<circle cx="98.5" cy="98.5" r="98.5" fill="white"/>
<path d="M139 64H59C53.5 64 49 68.5 49 74V124C49 129.5 53.5 134 59 134H139C144.5 134 149 129.5 149 123.9V74C149 68.5 144.5 64 139 64Z" fill="#F01414"/>
<path d="M141.7 123.9C141.8 125.4 140.6 126.7 139 126.8H58.9998C57.4998 126.8 56.2998 125.5 56.2998 124V74.0001C56.1998 72.5001 57.3998 71.2001 58.8998 71.1001H139C140.5 71.1001 141.7 72.4001 141.7 73.9001V123.9Z" fill="white"/>
<path d="M79.5998 121.9H62.7998V76.1H79.5998C91.4998 76.1 97.9998 83.5 97.9998 98.8C97.9998 112 93.4998 121.8 79.5998 121.9ZM86.8998 99.7C86.8998 90.5 85.8998 83.3 75.9998 83.3H73.7998V114.5H77.6998C83.4998 114.5 86.8998 109.8 86.8998 99.7ZM127 97.9C131.7 96.5 134.9 92.2 135 87.2C135 86.2 134.8 76 121.9 76H102.8V121.8H119C123.3 121.8 136.7 121.8 136.7 108.9C136.7 105.8 135.3 99.7 127 97.9ZM113.7 83.2H117.2C122.1 83.2 124.1 84.9 124.1 88.7C124.1 91.7 121.9 94.2 118.1 94.2H113.8V83.2H113.7ZM118.2 114.5H113.7V102.7H118.5C124.2 102.7 125.6 106 125.6 108.6C125.6 114.5 120 114.5 118.2 114.5Z" fill="#F01414"/>
</g>
<defs>
<clipPath id="clip0_53_235">
<rect width="197" height="197" fill="white"/>
</clipPath>
</defs>
</svg>
