<svg width="895" height="449" viewBox="0 0 895 449" fill="none" xmlns="http://www.w3.org/2000/svg">
<g clip-path="url(#clip0_74_400)">
<path d="M294.494 448.282C267.511 448.282 240.568 447.799 213.665 446.833C175.225 445.452 135.476 444.025 98.5299 423.534C72.6848 409.201 49.795 386.205 32.3357 357.03C20.6662 337.256 12.1096 315.803 6.96643 293.426C-2.6275 252.684 -2.30072 210.235 7.91929 169.646C11.5008 155.73 16.4381 142.199 22.6604 129.246C49.6033 73.4527 98.7453 36 157.486 26.4922C157.971 26.4292 158.462 26.4188 158.949 26.4609C159.213 26.4751 159.477 26.4902 159.745 26.479L160.091 26.3691C160.977 26.0612 161.887 25.8277 162.812 25.6709C253.406 12.1841 349.177 39.4727 439.764 104.584C509.806 154.936 602.631 182.049 723.545 187.474L725.262 187.563C758.921 189.497 791.48 203.374 819.422 227.696C847.002 251.702 867.709 283.73 879.306 320.32C880.732 324.781 882.039 329.425 883.19 334.121C884.263 338.486 884.187 343.054 882.97 347.38C881.754 351.707 879.439 355.645 876.249 358.811V358.82L875.948 359.13C875.224 359.851 874.461 360.542 873.681 361.186L872.764 361.941C865.037 368.307 858.934 373.335 851.629 377.24C846.758 379.827 841.576 381.783 836.211 383.061C806.745 390.245 776.823 396.905 747.275 402.858C689.89 414.429 630.993 423.974 572.221 431.227C480.081 442.588 387.331 448.284 294.494 448.282ZM158.262 28.437C158.082 28.4353 157.901 28.4476 157.723 28.4736C99.5311 37.8926 50.8543 74.9775 24.1786 130.219C18.0177 143.043 13.1292 156.44 9.58332 170.219C-0.543563 210.448 -0.866279 252.52 8.64231 292.899C13.7351 315.063 22.2087 336.31 33.7656 355.896C51.0541 384.784 73.7098 407.55 99.2839 421.731C135.898 442.039 175.46 443.46 213.72 444.833C333.383 449.109 453.196 443.894 572.035 429.238C630.77 421.989 689.628 412.451 746.975 400.888C776.504 394.939 806.405 388.284 835.851 381.105C841.087 379.859 846.144 377.95 850.898 375.426C858.055 371.6 864.1 366.619 871.753 360.314L872.67 359.56C873.34 359.006 873.998 358.414 874.628 357.799L874.809 357.609C881.098 351.271 883.544 342.907 881.519 334.665V334.664C880.379 330.018 879.086 325.424 877.675 321.009C853.985 246.263 792.701 193.439 725.179 189.562L723.471 189.472C668.24 186.993 619.907 180.128 575.72 168.481C522.97 154.579 476.919 133.651 438.844 106.281C348.602 41.4185 253.231 14.2314 163.033 27.6543C162.19 27.7996 161.361 28.0146 160.554 28.2969L159.931 28.4712C159.577 28.487 159.223 28.4828 158.87 28.4585C158.661 28.4478 158.459 28.437 158.262 28.437Z" fill="#F0F0F0"/>
<path d="M113.249 336C141.416 336 164.249 313.167 164.249 285C164.249 256.833 141.416 234 113.249 234C85.0825 234 62.249 256.833 62.249 285C62.249 313.167 85.0825 336 113.249 336Z" fill="#F0F0F0"/>
<path d="M438.249 102C466.416 102 489.249 79.1665 489.249 51C489.249 22.8335 466.416 0 438.249 0C410.083 0 387.249 22.8335 387.249 51C387.249 79.1665 410.083 102 438.249 102Z" fill="#F0F0F0"/>
<path d="M843.249 344C871.416 344 894.249 321.167 894.249 293C894.249 264.833 871.416 242 843.249 242C815.083 242 792.249 264.833 792.249 293C792.249 321.167 815.083 344 843.249 344Z" fill="#F0F0F0"/>
<path d="M530.249 56.5619V172.208C530.25 174.61 529.302 176.915 527.612 178.623C525.923 180.33 523.628 181.302 521.226 181.327C521.193 181.331 521.159 181.332 521.126 181.331H507.666C496.897 181.331 486.568 177.053 478.953 169.438C471.338 161.823 467.06 151.494 467.06 140.725V56.5619C467.06 54.1422 468.021 51.8216 469.732 50.1107C471.443 48.3997 473.763 47.4385 476.183 47.4385H481.637C479.11 54.8091 513.402 57.9122 515.285 47.4385H521.126C523.546 47.4385 525.866 48.3997 527.577 50.1107C529.288 51.8217 530.249 54.1422 530.249 56.5619Z" fill="#D8C4B6"/>
<path d="M490.307 38.7909C490.307 38.4739 490.433 38.17 490.657 37.9458C490.881 37.7217 491.185 37.5956 491.502 37.5952H499.633C499.949 37.5961 500.252 37.7225 500.476 37.9466C500.699 38.1708 500.825 38.4744 500.825 38.7909C500.825 39.1074 500.699 39.411 500.476 39.6351C500.252 39.8592 499.949 39.9856 499.633 39.9865H491.502C491.185 39.9861 490.881 39.8601 490.657 39.6359C490.433 39.4118 490.307 39.1079 490.307 38.7909Z" fill="#3F3D56"/>
<path d="M523.919 196H472.503C468.514 195.995 464.69 194.409 461.869 191.588C459.048 188.768 457.462 184.943 457.457 180.954V100.113C457.175 99.91 456.945 99.6429 456.786 99.3335C456.628 99.0242 456.545 98.6815 456.546 98.334V90.2036C456.545 89.8561 456.628 89.5135 456.786 89.2042C456.945 88.8949 457.175 88.6279 457.457 88.4253V86.2431C457.175 86.0405 456.945 85.7734 456.786 85.4642C456.628 85.1549 456.545 84.8123 456.546 84.4648V76.334C456.545 75.9864 456.628 75.6438 456.786 75.3346C456.945 75.0253 457.175 74.7583 457.457 74.5556V70.6118C457.108 70.4246 456.817 70.1461 456.615 69.8062C456.412 69.4663 456.306 69.0778 456.307 68.6821V60.5517C456.306 60.156 456.412 59.7673 456.615 59.4274C456.817 59.0874 457.108 58.8089 457.457 58.6215V47.8149C457.462 43.8258 459.048 40.0014 461.869 37.1808C464.69 34.3601 468.514 32.7735 472.503 32.769H523.919C527.908 32.7735 531.733 34.3602 534.553 37.1808C537.374 40.0015 538.961 43.8259 538.965 47.8149V71.3711C539.236 71.5406 539.46 71.7761 539.615 72.0557C539.77 72.3352 539.851 72.6496 539.851 72.9692V88.4721C539.851 88.7918 539.77 89.1062 539.615 89.3858C539.46 89.6655 539.236 89.9011 538.965 90.0707V180.954C538.961 184.943 537.374 188.767 534.553 191.588C531.733 194.409 527.908 195.995 523.919 196ZM472.503 34.769C469.045 34.7729 465.728 36.1486 463.283 38.5944C460.837 41.0401 459.461 44.3561 459.457 47.8149V60.3228L458.495 60.3599C458.445 60.3616 458.398 60.3825 458.363 60.4182C458.328 60.4539 458.307 60.5017 458.307 60.5518V68.682C458.308 68.732 458.328 68.7797 458.363 68.8154C458.398 68.8511 458.445 68.872 458.495 68.874L459.457 68.9106V75.9599L458.696 76.1474C458.654 76.1575 458.617 76.1814 458.589 76.2151C458.562 76.2488 458.547 76.2906 458.546 76.3339V84.4648C458.547 84.5081 458.562 84.5499 458.589 84.5836C458.617 84.6174 458.654 84.6411 458.696 84.6513L459.457 84.8388V89.8295L458.696 90.017C458.654 90.0272 458.617 90.051 458.589 90.0847C458.562 90.1185 458.547 90.1602 458.546 90.2036V98.3339C458.547 98.3773 458.562 98.4192 458.589 98.453C458.616 98.4868 458.654 98.5107 458.696 98.5209L459.457 98.7084V180.954C459.461 184.413 460.837 187.729 463.283 190.175C465.728 192.62 469.045 193.996 472.503 194H523.919C527.378 193.996 530.694 192.62 533.14 190.174C535.586 187.729 536.961 184.413 536.965 180.954V88.3583H537.851V73.0835H536.965V47.8149C536.961 44.3561 535.586 41.0401 533.14 38.5944C530.694 36.1487 527.378 34.773 523.919 34.769L472.503 34.769Z" fill="#415370"/>
<path d="M504.176 39.9865C504.836 39.9865 505.372 39.4512 505.372 38.7909C505.372 38.1305 504.836 37.5952 504.176 37.5952C503.516 37.5952 502.98 38.1305 502.98 38.7909C502.98 39.4512 503.516 39.9865 504.176 39.9865Z" fill="#3F3D56"/>
<path d="M498.983 168.004C503.691 168.004 507.507 164.188 507.507 159.48C507.507 154.772 503.691 150.956 498.983 150.956C494.275 150.956 490.459 154.772 490.459 159.48C490.459 164.188 494.275 168.004 498.983 168.004Z" fill="white"/>
<path d="M187.479 377.097L202.492 358.831L213.993 368.284L189.527 398.05C188.017 396.809 186.766 395.282 185.845 393.558C184.925 391.833 184.354 389.944 184.163 387.998C183.973 386.052 184.168 384.088 184.737 382.218C185.306 380.347 186.238 378.607 187.479 377.097Z" fill="#415370"/>
<path d="M189.8 327.871C189.8 327.871 138.8 295.871 128.8 312.871C123.8 321.371 126.3 329.621 130.05 335.746C133.53 341.323 138.525 345.794 144.452 348.637L185.8 368.871L200.8 352.871L190.8 343.871L189.8 327.871Z" fill="#415370"/>
<path d="M215.8 322.871C215.8 322.871 281.8 303.871 268.8 339.871C255.8 375.871 206.8 361.871 206.8 361.871L201.8 346.871L218.8 334.871L215.8 322.871Z" fill="#415370"/>
<path d="M209.139 220.597C222.704 220.597 233.7 209.601 233.7 196.036C233.7 182.472 222.704 171.475 209.139 171.475C195.574 171.475 184.578 182.472 184.578 196.036C184.578 209.601 195.574 220.597 209.139 220.597Z" fill="#FFB8B8"/>
<path d="M210.426 326.84C200.22 326.686 190.067 325.348 180.169 322.854L179.876 322.774L166.171 259.729C164.938 254.189 165.776 248.389 168.528 243.425C171.279 238.461 175.752 234.676 181.104 232.785C197.634 226.854 215.65 226.495 232.403 231.761C238.025 233.572 242.757 237.437 245.655 242.583C248.553 247.729 249.404 253.779 248.039 259.525L232.73 322.721L232.515 322.823C226.153 325.837 218.197 326.84 210.426 326.84Z" fill="#CCCCCC"/>
<path d="M217.754 336.847C217.315 336.846 216.878 336.782 216.457 336.656C215.775 336.457 215.149 336.098 214.634 335.608C214.118 335.118 213.728 334.512 213.495 333.84L210.238 324.611C209.933 323.758 209.894 322.833 210.126 321.958C210.359 321.082 210.852 320.298 211.54 319.709L248.309 297.635L233.815 232.974L234.183 232.885C234.333 232.848 249.183 229.468 255.269 245.695C259.53 257.061 275.3 281.772 274.188 298.472C273.976 301.812 272.645 304.984 270.41 307.474C268.174 309.965 265.164 311.63 261.866 312.199L220.478 335.912C219.698 336.516 218.74 336.845 217.754 336.847Z" fill="#CCCCCC"/>
<path d="M198.847 336.847C197.86 336.845 196.902 336.516 196.123 335.912L151.735 314.199C148.437 313.63 145.427 311.965 143.191 309.474C140.955 306.984 139.624 303.812 139.413 300.472C138.3 283.772 157.07 257.06 161.332 245.695C167.417 229.468 182.267 232.847 182.417 232.885L182.786 232.974L165.292 299.635L205.061 319.709C205.749 320.298 206.242 321.082 206.474 321.958C206.707 322.833 206.668 323.758 206.363 324.611L203.106 333.84C202.873 334.512 202.482 335.118 201.967 335.608C201.451 336.098 200.826 336.457 200.143 336.656C199.723 336.782 199.286 336.846 198.847 336.847Z" fill="#CCCCCC"/>
<path d="M251.8 346.871H162.8C160.944 346.869 159.165 346.131 157.852 344.818C156.54 343.506 155.802 341.727 155.8 339.871V290.871C155.802 289.015 156.54 287.236 157.852 285.924C159.165 284.611 160.944 283.873 162.8 283.871H251.8C253.656 283.873 255.435 284.611 256.747 285.924C258.059 287.236 258.798 289.015 258.8 290.871V339.871C258.798 341.727 258.059 343.506 256.747 344.818C255.435 346.131 253.656 346.869 251.8 346.871Z" fill="#D8C4B6"/>
<path d="M207.3 321.371C210.614 321.371 213.3 318.685 213.3 315.371C213.3 312.057 210.614 309.371 207.3 309.371C203.986 309.371 201.3 312.057 201.3 315.371C201.3 318.685 203.986 321.371 207.3 321.371Z" fill="white"/>
<path d="M184.332 195.037C182.877 191.345 185.265 186.944 188.808 185.156C192.351 183.367 196.626 183.707 200.416 184.886C203.601 185.877 206.586 187.412 209.693 188.625C212.756 189.982 216.102 190.578 219.446 190.362C222.76 189.987 226.059 188.129 227.415 185.082C228.821 181.923 227.865 178.068 225.7 175.373C223.396 172.767 220.415 170.851 217.088 169.838C209.781 167.263 201.34 167.188 194.556 170.93C187.772 174.673 183.161 182.641 184.564 190.26" fill="#415370"/>
<path d="M769.01 331.539L801.307 299.341L769.01 267.142L778.856 257.328L821 299.341L778.856 341.353L769.01 331.539Z" fill="#D8C4B6"/>
<path d="M676.779 301.638H689.908V288.509H676.779L676.779 301.638ZM742.686 288.509H729.557V301.638H742.686V288.509ZM703.168 301.638H716.297V288.509H703.168V301.638Z" fill="#D8C4B6"/>
<path d="M658.99 331.211L626.66 299.012L658.957 266.814L649.111 257L607 299.012L649.144 341.024L658.99 331.211Z" fill="#D8C4B6"/>
</g>
<defs>
<clipPath id="clip0_74_400">
<rect width="894.249" height="448.282" fill="white"/>
</clipPath>
</defs>
</svg>
