<svg width="261" height="271" viewBox="0 0 261 271" fill="none" xmlns="http://www.w3.org/2000/svg">
<path d="M77.6932 66.4602V62.0568C81.6468 62.0568 84.4048 61.2282 85.9673 59.571C87.5535 57.9138 88.3466 55.1439 88.3466 51.2614V39.8977C88.3466 36.6307 88.6544 33.8016 89.2699 31.4105C89.9091 29.0194 90.9389 27.0426 92.3594 25.4801C93.7798 23.9176 95.6738 22.7576 98.0412 22C100.409 21.2424 103.332 20.8636 106.812 20.8636V27.8239C104.066 27.8239 101.9 28.25 100.314 29.1023C98.7514 29.9545 97.6387 31.2803 96.9759 33.0795C96.3366 34.8551 96.017 37.1278 96.017 39.8977V54.1023C96.017 55.9489 95.7685 57.6297 95.2713 59.1449C94.7978 60.66 93.91 61.9621 92.608 63.0511C91.3059 64.1402 89.4474 64.9806 87.0327 65.5724C84.6416 66.1643 81.5284 66.4602 77.6932 66.4602ZM106.812 111.773C103.332 111.773 100.409 111.394 98.0412 110.636C95.6738 109.879 93.7798 108.719 92.3594 107.156C90.9389 105.594 89.9091 103.617 89.2699 101.226C88.6544 98.8348 88.3466 96.0057 88.3466 92.7386V81.375C88.3466 77.4924 87.5535 74.7225 85.9673 73.0653C84.4048 71.4081 81.6468 70.5795 77.6932 70.5795V66.1761C81.5284 66.1761 84.6416 66.4721 87.0327 67.0639C89.4474 67.6558 91.3059 68.4962 92.608 69.5852C93.91 70.6742 94.7978 71.9763 95.2713 73.4915C95.7685 75.0066 96.017 76.6875 96.017 78.5341V92.7386C96.017 95.5085 96.3366 97.7813 96.9759 99.5568C97.6387 101.332 98.7514 102.646 100.314 103.499C101.9 104.375 104.066 104.812 106.812 104.812V111.773ZM77.6932 70.5795V62.0568H86.0739V70.5795H77.6932ZM143.611 20.8636L120.174 107.938H112.503L135.941 20.8636H143.611ZM178.403 66.1761V70.5795C174.45 70.5795 171.68 71.4081 170.094 73.0653C168.531 74.7225 167.75 77.4924 167.75 81.375V92.7386C167.75 96.0057 167.43 98.8348 166.791 101.226C166.176 103.617 165.158 105.594 163.737 107.156C162.317 108.719 160.423 109.879 158.055 110.636C155.688 111.394 152.764 111.773 149.284 111.773V104.812C152.03 104.812 154.185 104.375 155.747 103.499C157.333 102.646 158.446 101.332 159.085 99.5568C159.748 97.7813 160.08 95.5085 160.08 92.7386V78.5341C160.08 76.6875 160.316 75.0066 160.79 73.4915C161.287 71.9763 162.187 70.6742 163.489 69.5852C164.791 68.4962 166.637 67.6558 169.028 67.0639C171.443 66.4721 174.568 66.1761 178.403 66.1761ZM149.284 20.8636C152.764 20.8636 155.688 21.2424 158.055 22C160.423 22.7576 162.317 23.9176 163.737 25.4801C165.158 27.0426 166.176 29.0194 166.791 31.4105C167.43 33.8016 167.75 36.6307 167.75 39.8977V51.2614C167.75 55.1439 168.531 57.9138 170.094 59.571C171.68 61.2282 174.45 62.0568 178.403 62.0568V66.4602C174.568 66.4602 171.443 66.1643 169.028 65.5724C166.637 64.9806 164.791 64.1402 163.489 63.0511C162.187 61.9621 161.287 60.66 160.79 59.1449C160.316 57.6297 160.08 55.9489 160.08 54.1023V39.8977C160.08 37.1278 159.748 34.8551 159.085 33.0795C158.446 31.2803 157.333 29.9545 155.747 29.1023C154.185 28.25 152.03 27.8239 149.284 27.8239V20.8636ZM178.403 62.0568V70.5795H170.023V62.0568H178.403Z" fill="#F6A10B"/>
<line x1="106" y1="122" x2="156" y2="122" stroke="black" stroke-width="8"/>
<line x1="106" y1="135" x2="156" y2="135" stroke="black" stroke-width="8"/>
<line x1="106" y1="148" x2="156" y2="148" stroke="black" stroke-width="8"/>
<line x1="120" y1="161" x2="140" y2="161" stroke="black" stroke-width="8"/>
<path d="M43.3 199H39.875V181.712H43.3V199ZM43.425 189.775L48.875 181.712H52.55L47 189.525L53.025 199H48.9875L43.425 189.775ZM62.9902 199V191.4H57.9902V199H54.5652V181.712H57.9902V188.587H62.9902V181.712H66.4152V199H62.9902ZM78.2805 195.037H72.593L71.518 199H67.9805L73.393 181.712H77.593L82.993 199H79.3555L78.2805 195.037ZM73.2055 192.475H77.643L75.4305 184.275L73.2055 192.475ZM85.6707 199V181.712H89.0957V196.225H96.7207L96.3582 199H85.6707ZM103.998 184.237V188.975H110.123V191.462H103.998V196.487H111.436V199H100.573V181.712H111.348L110.998 184.237H103.998ZM123.551 190.275C123.551 188.992 123.43 187.954 123.189 187.162C122.955 186.371 122.635 185.767 122.226 185.35C121.818 184.925 121.355 184.637 120.839 184.487C120.322 184.337 119.785 184.262 119.226 184.262H117.951V196.462H119.239C119.822 196.462 120.372 196.371 120.889 196.187C121.414 196.004 121.876 195.687 122.276 195.237C122.676 194.779 122.989 194.15 123.214 193.35C123.439 192.542 123.551 191.517 123.551 190.275ZM127.126 190.275C127.126 191.692 126.972 192.904 126.664 193.912C126.364 194.921 125.947 195.758 125.414 196.425C124.88 197.083 124.264 197.6 123.564 197.975C122.872 198.35 122.13 198.617 121.339 198.775C120.555 198.925 119.76 199 118.951 199H114.526V181.712H118.651C119.726 181.712 120.768 181.829 121.776 182.062C122.785 182.287 123.689 182.704 124.489 183.312C125.297 183.921 125.939 184.787 126.414 185.912C126.889 187.029 127.126 188.483 127.126 190.275ZM153.382 193.9C153.382 193.2 153.244 192.654 152.969 192.262C152.702 191.871 152.332 191.596 151.857 191.437C151.382 191.271 150.84 191.188 150.232 191.188H148.107V196.437H150.082C150.49 196.437 150.89 196.404 151.282 196.337C151.673 196.271 152.027 196.15 152.344 195.975C152.669 195.792 152.923 195.533 153.107 195.2C153.29 194.867 153.382 194.433 153.382 193.9ZM152.719 186.412C152.719 185.629 152.473 185.067 151.982 184.725C151.498 184.383 150.782 184.212 149.832 184.212H148.107V188.775H149.982C150.915 188.775 151.602 188.592 152.044 188.225C152.494 187.85 152.719 187.246 152.719 186.412ZM156.932 193.987C156.932 194.962 156.74 195.775 156.357 196.425C155.982 197.075 155.469 197.587 154.819 197.962C154.169 198.337 153.432 198.604 152.607 198.762C151.79 198.921 150.936 199 150.044 199H144.682V181.712H149.732C150.582 181.712 151.39 181.783 152.157 181.925C152.923 182.067 153.607 182.308 154.207 182.65C154.815 182.983 155.294 183.433 155.644 184C156.002 184.567 156.182 185.271 156.182 186.112C156.182 186.821 156.032 187.429 155.732 187.937C155.44 188.446 155.048 188.858 154.557 189.175C154.073 189.483 153.552 189.708 152.994 189.85C153.619 189.95 154.232 190.146 154.832 190.437C155.44 190.721 155.94 191.15 156.332 191.725C156.732 192.292 156.932 193.046 156.932 193.987ZM168.222 195.037H162.534L161.459 199H157.922L163.334 181.712H167.534L172.934 199H169.297L168.222 195.037ZM163.147 192.475H167.584L165.372 184.275L163.147 192.475ZM178.212 199H174.787V181.712H178.212V199ZM178.337 189.775L183.787 181.712H187.462L181.912 189.525L187.937 199H183.9L178.337 189.775ZM200.777 181.712V184.275H197.115V196.437H200.777V199H190.027V196.437H193.69V184.275H190.027V181.712H200.777ZM216.718 186.825C216.718 187.658 216.551 188.387 216.218 189.012C215.893 189.637 215.447 190.162 214.88 190.587C214.322 191.012 213.693 191.342 212.993 191.575L217.73 199H213.805L209.718 192.113H208.143V199H204.73V181.712H209.818C212.093 181.712 213.809 182.133 214.968 182.975C216.134 183.817 216.718 185.1 216.718 186.825ZM213.168 186.825C213.168 185.892 212.897 185.221 212.355 184.812C211.813 184.396 210.997 184.187 209.905 184.187H208.143V189.687H210.018C211.026 189.687 211.801 189.462 212.343 189.012C212.893 188.562 213.168 187.833 213.168 186.825Z" fill="#F5EFE7"/>
<path d="M52.3675 216.737V220.352H56.4175V221.402H52.3675V226H51.0775V215.672H57.16L57.0025 216.737H52.3675ZM66.0566 218.567C66.0566 219.082 65.9441 219.532 65.7191 219.917C65.4991 220.302 65.1991 220.62 64.8191 220.87C64.4391 221.12 64.0116 221.302 63.5366 221.417L66.5966 226H65.0366L62.2166 221.567H60.8216V226H59.5166V215.672H62.1716C63.4466 215.672 64.4116 215.917 65.0666 216.407C65.7266 216.892 66.0566 217.612 66.0566 218.567ZM64.6616 218.567C64.6616 217.902 64.4716 217.427 64.0916 217.142C63.7116 216.852 63.1216 216.707 62.3216 216.707H60.8216V220.547H62.3216C63.0616 220.547 63.6366 220.397 64.0466 220.097C64.4566 219.792 64.6616 219.282 64.6616 218.567ZM75.2908 220.847C75.2908 221.887 75.1483 222.81 74.8633 223.615C74.5833 224.415 74.1608 225.042 73.5958 225.497C73.0308 225.948 72.3283 226.173 71.4883 226.173C70.6533 226.173 69.9508 225.952 69.3808 225.512C68.8158 225.067 68.3908 224.447 68.1058 223.652C67.8258 222.857 67.6858 221.927 67.6858 220.862C67.6858 219.817 67.8258 218.892 68.1058 218.087C68.3908 217.282 68.8158 216.652 69.3808 216.197C69.9508 215.737 70.6533 215.507 71.4883 215.507C72.3283 215.507 73.0308 215.73 73.5958 216.175C74.1608 216.62 74.5833 217.242 74.8633 218.042C75.1483 218.842 75.2908 219.777 75.2908 220.847ZM73.9258 220.847C73.9258 219.472 73.7358 218.42 73.3558 217.69C72.9808 216.96 72.3583 216.595 71.4883 216.595C70.6183 216.595 69.9933 216.962 69.6133 217.698C69.2383 218.432 69.0508 219.487 69.0508 220.862C69.0508 222.237 69.2458 223.285 69.6358 224.005C70.0258 224.72 70.6433 225.077 71.4883 225.077C72.3583 225.077 72.9808 224.717 73.3558 223.997C73.7358 223.272 73.9258 222.222 73.9258 220.847ZM81.9074 226L78.2699 216.917C78.2749 217.032 78.2849 217.225 78.2999 217.495C78.3199 217.76 78.3399 218.077 78.3599 218.447C78.3849 218.812 78.4049 219.2 78.4199 219.61C78.4349 220.02 78.4424 220.425 78.4424 220.825V226H77.2349V215.672H78.9974L82.6949 224.792C82.6899 224.647 82.6724 224.382 82.6424 223.997C82.6124 223.607 82.5849 223.137 82.5599 222.587C82.5349 222.037 82.5224 221.455 82.5224 220.84V215.672H83.7299V226H81.9074ZM90.0991 216.79V226H88.8016V216.79H85.5766V215.672H93.3691L93.2341 216.79H90.0991ZM97.1582 216.737V220.217H100.983V221.29H97.1582V224.957H101.853V226H95.8532V215.672H101.718L101.568 216.737H97.1582ZM108.89 226L105.252 216.917C105.257 217.032 105.267 217.225 105.282 217.495C105.302 217.76 105.322 218.077 105.342 218.447C105.367 218.812 105.387 219.2 105.402 219.61C105.417 220.02 105.425 220.425 105.425 220.825V226H104.217V215.672H105.98L109.677 224.792C109.672 224.647 109.655 224.382 109.625 223.997C109.595 223.607 109.567 223.137 109.542 222.587C109.517 222.037 109.505 221.455 109.505 220.84V215.672H110.712V226H108.89ZM118.859 220.787C118.859 219.887 118.764 219.167 118.574 218.627C118.384 218.087 118.134 217.682 117.824 217.412C117.514 217.142 117.174 216.962 116.804 216.872C116.439 216.782 116.079 216.737 115.724 216.737H114.509V224.957H115.739C116.109 224.957 116.476 224.9 116.841 224.785C117.211 224.665 117.549 224.455 117.854 224.155C118.159 223.85 118.401 223.427 118.581 222.887C118.766 222.342 118.859 221.642 118.859 220.787ZM120.246 220.787C120.246 221.647 120.154 222.382 119.969 222.992C119.789 223.597 119.541 224.097 119.226 224.492C118.911 224.887 118.551 225.195 118.146 225.415C117.746 225.63 117.324 225.782 116.879 225.872C116.439 225.957 116.006 226 115.581 226H113.211V215.672H115.416C116.021 215.672 116.609 215.74 117.179 215.875C117.754 216.01 118.271 216.26 118.731 216.625C119.196 216.985 119.564 217.5 119.834 218.17C120.109 218.84 120.246 219.712 120.246 220.787ZM136.847 220.787C136.847 219.887 136.752 219.167 136.562 218.627C136.372 218.087 136.122 217.682 135.812 217.412C135.502 217.142 135.162 216.962 134.792 216.872C134.427 216.782 134.067 216.737 133.712 216.737H132.497V224.957H133.727C134.097 224.957 134.465 224.9 134.83 224.785C135.2 224.665 135.537 224.455 135.842 224.155C136.147 223.85 136.39 223.427 136.57 222.887C136.755 222.342 136.847 221.642 136.847 220.787ZM138.235 220.787C138.235 221.647 138.142 222.382 137.957 222.992C137.777 223.597 137.53 224.097 137.215 224.492C136.9 224.887 136.54 225.195 136.135 225.415C135.735 225.63 135.312 225.782 134.867 225.872C134.427 225.957 133.995 226 133.57 226H131.2V215.672H133.405C134.01 215.672 134.597 215.74 135.167 215.875C135.742 216.01 136.26 216.26 136.72 216.625C137.185 216.985 137.552 217.5 137.822 218.17C138.097 218.84 138.235 219.712 138.235 220.787ZM142.129 216.737V220.217H145.954V221.29H142.129V224.957H146.824V226H140.824V215.672H146.689L146.539 216.737H142.129ZM152.466 224.522L155.256 215.672H156.568L153.111 226H151.761L148.303 215.672H149.706L152.466 224.522ZM160.117 216.737V220.217H163.942V221.29H160.117V224.957H164.812V226H158.812V215.672H164.677L164.527 216.737H160.117ZM167.956 226V215.672H169.261V224.837H173.971L173.821 226H167.956ZM183.22 220.847C183.22 221.887 183.078 222.81 182.793 223.615C182.513 224.415 182.09 225.042 181.525 225.497C180.96 225.948 180.258 226.173 179.418 226.173C178.583 226.173 177.88 225.952 177.31 225.512C176.745 225.067 176.32 224.447 176.035 223.652C175.755 222.857 175.615 221.927 175.615 220.862C175.615 219.817 175.755 218.892 176.035 218.087C176.32 217.282 176.745 216.652 177.31 216.197C177.88 215.737 178.583 215.507 179.418 215.507C180.258 215.507 180.96 215.73 181.525 216.175C182.09 216.62 182.513 217.242 182.793 218.042C183.078 218.842 183.22 219.777 183.22 220.847ZM181.855 220.847C181.855 219.472 181.665 218.42 181.285 217.69C180.91 216.96 180.288 216.595 179.418 216.595C178.548 216.595 177.923 216.962 177.543 217.698C177.168 218.432 176.98 219.487 176.98 220.862C176.98 222.237 177.175 223.285 177.565 224.005C177.955 224.72 178.573 225.077 179.418 225.077C180.288 225.077 180.91 224.717 181.285 223.997C181.665 223.272 181.855 222.222 181.855 220.847ZM190.872 218.86C190.872 218.325 190.767 217.902 190.557 217.592C190.347 217.277 190.06 217.052 189.695 216.917C189.33 216.777 188.912 216.707 188.442 216.707H186.95V221.117H188.39C188.875 221.117 189.302 221.052 189.672 220.922C190.042 220.787 190.335 220.557 190.55 220.232C190.765 219.902 190.872 219.445 190.872 218.86ZM192.267 218.845C192.267 219.65 192.095 220.295 191.75 220.78C191.41 221.265 190.94 221.617 190.34 221.837C189.74 222.057 189.05 222.167 188.27 222.167H186.95V226H185.645V215.672H188.285C189.515 215.672 190.485 215.932 191.195 216.452C191.91 216.967 192.267 217.765 192.267 218.845ZM196.094 216.737V220.217H199.919V221.29H196.094V224.957H200.789V226H194.789V215.672H200.654L200.504 216.737H196.094ZM209.963 218.567C209.963 219.082 209.85 219.532 209.625 219.917C209.405 220.302 209.105 220.62 208.725 220.87C208.345 221.12 207.918 221.302 207.443 221.417L210.503 226H208.943L206.123 221.567H204.728V226H203.423V215.672H206.078C207.353 215.672 208.318 215.917 208.973 216.407C209.633 216.892 209.963 217.612 209.963 218.567ZM208.568 218.567C208.568 217.902 208.378 217.427 207.998 217.142C207.618 216.852 207.028 216.707 206.228 216.707H204.728V220.547H206.228C206.968 220.547 207.543 220.397 207.953 220.097C208.363 219.792 208.568 219.282 208.568 218.567Z" fill="#F5EFE7"/>
</svg>
