<svg width="128" height="128" viewBox="0 0 261 180" fill="none" xmlns="http://www.w3.org/2000/svg">
<path d="M77.6932 66.4602V62.0568C81.6468 62.0568 84.4048 61.2282 85.9673 59.571C87.5535 57.9138 88.3466 55.1439 88.3466 51.2614V39.8977C88.3466 36.6307 88.6544 33.8016 89.2699 31.4105C89.9091 29.0194 90.9389 27.0426 92.3594 25.4801C93.7798 23.9176 95.6738 22.7576 98.0412 22C100.409 21.2424 103.332 20.8636 106.812 20.8636V27.8239C104.066 27.8239 101.9 28.25 100.314 29.1023C98.7514 29.9545 97.6387 31.2803 96.9759 33.0795C96.3366 34.8551 96.017 37.1278 96.017 39.8977V54.1023C96.017 55.9489 95.7685 57.6297 95.2713 59.1449C94.7978 60.66 93.91 61.9621 92.608 63.0511C91.3059 64.1402 89.4474 64.9806 87.0327 65.5724C84.6416 66.1643 81.5284 66.4602 77.6932 66.4602ZM106.812 111.773C103.332 111.773 100.409 111.394 98.0412 110.636C95.6738 109.879 93.7798 108.719 92.3594 107.156C90.9389 105.594 89.9091 103.617 89.2699 101.226C88.6544 98.8348 88.3466 96.0057 88.3466 92.7386V81.375C88.3466 77.4924 87.5535 74.7225 85.9673 73.0653C84.4048 71.4081 81.6468 70.5795 77.6932 70.5795V66.1761C81.5284 66.1761 84.6416 66.4721 87.0327 67.0639C89.4474 67.6558 91.3059 68.4962 92.608 69.5852C93.91 70.6742 94.7978 71.9763 95.2713 73.4915C95.7685 75.0066 96.017 76.6875 96.017 78.5341V92.7386C96.017 95.5085 96.3366 97.7813 96.9759 99.5568C97.6387 101.332 98.7514 102.646 100.314 103.499C101.9 104.375 104.066 104.812 106.812 104.812V111.773ZM77.6932 70.5795V62.0568H86.0739V70.5795H77.6932ZM143.611 20.8636L120.174 107.938H112.503L135.941 20.8636H143.611ZM178.403 66.1761V70.5795C174.45 70.5795 171.68 71.4081 170.094 73.0653C168.531 74.7225 167.75 77.4924 167.75 81.375V92.7386C167.75 96.0057 167.43 98.8348 166.791 101.226C166.176 103.617 165.158 105.594 163.737 107.156C162.317 108.719 160.423 109.879 158.055 110.636C155.688 111.394 152.764 111.773 149.284 111.773V104.812C152.03 104.812 154.185 104.375 155.747 103.499C157.333 102.646 158.446 101.332 159.085 99.5568C159.748 97.7813 160.08 95.5085 160.08 92.7386V78.5341C160.08 76.6875 160.316 75.0066 160.79 73.4915C161.287 71.9763 162.187 70.6742 163.489 69.5852C164.791 68.4962 166.637 67.6558 169.028 67.0639C171.443 66.4721 174.568 66.1761 178.403 66.1761ZM149.284 20.8636C152.764 20.8636 155.688 21.2424 158.055 22C160.423 22.7576 162.317 23.9176 163.737 25.4801C165.158 27.0426 166.176 29.0194 166.791 31.4105C167.43 33.8016 167.75 36.6307 167.75 39.8977V51.2614C167.75 55.1439 168.531 57.9138 170.094 59.571C171.68 61.2282 174.45 62.0568 178.403 62.0568V66.4602C174.568 66.4602 171.443 66.1643 169.028 65.5724C166.637 64.9806 164.791 64.1402 163.489 63.0511C162.187 61.9621 161.287 60.66 160.79 59.1449C160.316 57.6297 160.08 55.9489 160.08 54.1023V39.8977C160.08 37.1278 159.748 34.8551 159.085 33.0795C158.446 31.2803 157.333 29.9545 155.747 29.1023C154.185 28.25 152.03 27.8239 149.284 27.8239V20.8636ZM178.403 62.0568V70.5795H170.023V62.0568H178.403Z" fill="#F6A10B"/>
<line x1="106" y1="122" x2="156" y2="122" stroke="#F6A10B" stroke-width="6"/>
<line x1="106" y1="135" x2="156" y2="135" stroke="#F6A10B" stroke-width="6"/>
<line x1="106" y1="148" x2="156" y2="148" stroke="#F6A10B" stroke-width="6"/>
<line x1="120" y1="161" x2="140" y2="161" stroke="#F6A10B" stroke-width="6"/>
</svg> 